<svg xmlns="http://www.w3.org/2000/svg" width="16" height="16" viewBox="0 0 16 16" fill="none">
  <path d="M10.5311 12.4696C10.672 12.6105 10.7512 12.8016 10.7512 13.0008C10.7512 13.2001 10.672 13.3912 10.5311 13.5321C10.3902 13.673 10.1991 13.7521 9.99989 13.7521C9.80063 13.7521 9.60953 13.673 9.46864 13.5321L4.46864 8.53206C4.39872 8.46238 4.34324 8.37959 4.30539 8.28843C4.26753 8.19726 4.24805 8.09952 4.24805 8.00081C4.24805 7.9021 4.26753 7.80436 4.30539 7.7132C4.34324 7.62204 4.39872 7.53924 4.46864 7.46956L9.46864 2.46956C9.60953 2.32867 9.80063 2.24951 9.99989 2.24951C10.1991 2.24951 10.3902 2.32867 10.5311 2.46956C10.672 2.61046 10.7512 2.80156 10.7512 3.00081C10.7512 3.20007 10.672 3.39117 10.5311 3.53206L6.06301 8.00019L10.5311 12.4696Z" fill="white"/>
</svg>
