<svg width="14" height="14" viewBox="0 0 14 14" fill="none" xmlns="http://www.w3.org/2000/svg">
<path d="M8.33512 4.84266L3.43512 9.65516C3.3124 9.77573 3.14724 9.84329 2.9752 9.84329C2.80316 9.84329 2.638 9.77573 2.51528 9.65516L0.415277 7.5929C0.353766 7.5325 0.304754 7.46058 0.271038 7.38124C0.237323 7.3019 0.219565 7.2167 0.218777 7.13049C0.217188 6.9564 0.284822 6.7888 0.406801 6.66458C0.467198 6.60307 0.53912 6.55405 0.61846 6.52034C0.697799 6.48662 0.783003 6.46886 0.869205 6.46808C1.0433 6.46649 1.21089 6.53412 1.33512 6.6561L2.97575 8.26719L7.41582 3.90641C7.53998 3.78443 7.7075 3.71677 7.88155 3.71831C8.05559 3.71985 8.22189 3.79046 8.34387 3.91462C8.46585 4.03877 8.53351 4.2063 8.53197 4.38034C8.53044 4.55438 8.45982 4.72068 8.33567 4.84266H8.33512ZM13.5933 3.91298C13.5329 3.85125 13.4609 3.80207 13.3814 3.76824C13.3019 3.73441 13.2166 3.71661 13.1302 3.71585C13.0438 3.71508 12.9581 3.73138 12.8781 3.7638C12.798 3.79622 12.7251 3.84413 12.6636 3.90477L8.2252 8.26719L7.79426 7.84391C7.67011 7.72193 7.50258 7.65427 7.32854 7.65581C7.1545 7.65735 6.98819 7.72796 6.86622 7.85212C6.74424 7.97627 6.67657 8.1438 6.67811 8.31784C6.67965 8.49188 6.75026 8.65818 6.87442 8.78016L7.76528 9.65516C7.888 9.77573 8.05316 9.84329 8.2252 9.84329C8.39724 9.84329 8.5624 9.77573 8.68512 9.65516L13.5851 4.84266C13.6466 4.78227 13.6956 4.71035 13.7293 4.63102C13.7629 4.5517 13.7807 4.46652 13.7814 4.38034C13.7822 4.29416 13.766 4.20868 13.7337 4.12877C13.7014 4.04886 13.6537 3.97609 13.5933 3.91462V3.91298Z" fill="#13CD8A"/>
</svg>
